<?xml version="1.0" encoding="UTF-8"?><svg id="Layer_1" xmlns="http://www.w3.org/2000/svg" viewBox="0 0 1407.11 267.85"><defs><style>.cls-1{fill:#0d6bbc;}.cls-1,.cls-2,.cls-3,.cls-4,.cls-5,.cls-6{stroke-width:0px;}.cls-2{fill:#ef7351;}.cls-3{fill:#93d182;}.cls-4,.cls-7{fill:#1b1b1a;}.cls-7{stroke:#fff;stroke-miterlimit:10;}.cls-5{fill:#e0c925;}.cls-6{fill:#f2ebcf;}</style></defs><path class="cls-3" d="M1407.11,52.87s-69.16,11.71-67.3,67.31c58.99,6.63,67.3-67.31,67.3-67.31Z"/><path class="cls-2" d="M1373.37,33.45s-66.2,23.17-55.03,77.67c59.26-3.38,55.03-77.67,55.03-77.67Z"/><path class="cls-5" d="M1328.72,18.6s-51.97,47.11-20.45,92.96c53.27-26.18,20.45-92.96,20.45-92.96Z"/><path class="cls-1" d="M1282.99,17.77s-34.52,61.06,9.82,94.68c42.34-41.61-9.82-94.68-9.82-94.68Z"/><path class="cls-4" d="M183.62,34.55H0V0h183.62v34.55ZM112.49,237.13V0h34.55v237.13h-34.55Z"/><path class="cls-4" d="M200.9,0h34.55v91.8c2.93-3.61,6.61-6.44,11.01-8.47,4.4-2.03,9.31-3.05,14.73-3.05,10.84,0,20.89,2.71,30.15,8.13,9.26,5.42,16.6,12.76,22.02,22.02,5.42,9.26,8.13,19.43,8.13,30.49v96.21h-34.21v-96.21c0-7.22-2.54-13.38-7.62-18.46-5.08-5.08-11.24-7.62-18.46-7.62s-13.04,2.54-18.12,7.62c-5.08,5.08-7.62,11.24-7.62,18.46v96.21h-34.55V0Z"/><path class="cls-4" d="M389.24,146.68h45.73c9.71,0,15.35-2.59,16.94-7.79,1.58-5.19-.96-10.27-7.62-15.24-6.66-4.96-15.75-7.45-27.27-7.45-7.91,0-15.19,2.03-21.85,6.1-6.66,4.06-11.97,9.48-15.92,16.26-3.95,6.77-5.93,14.11-5.93,22.02s1.92,15.58,5.76,22.36c3.84,6.77,9.09,12.25,15.75,16.43,6.66,4.18,13.94,6.27,21.85,6.27,6.32-.22,12.25-1.47,17.78-3.73,5.53-2.26,10.33-5.42,14.4-9.49l24.39,24.39c-7,7.23-15.47,12.87-25.4,16.94-9.94,4.07-20.22,6.1-30.83,6.1-14.23,0-27.33-3.56-39.3-10.67-11.97-7.11-21.46-16.71-28.46-28.8-7-12.08-10.5-25.24-10.5-39.46s3.5-27.44,10.5-39.63c7-12.2,16.48-21.85,28.46-28.96,11.97-7.11,25.07-10.67,39.3-10.67,25.52,0,44.49,8.25,56.91,24.73,12.42,16.49,15.02,33.03,7.79,49.63-7.23,16.6-22.81,24.9-46.75,24.9h-45.73v-34.22Z"/><path class="cls-4" d="M502.88,0h47.42c11.29,0,21.73,2.77,31.34,8.3,9.6,5.54,17.16,13.1,22.7,22.7,5.53,9.6,8.3,20.15,8.3,31.67,0,8.81-2.03,17.11-6.1,24.9-4.07,7.79-9.49,14.06-16.26,18.8,6.32,3.62,12.03,8.36,17.11,14.23,5.08,5.87,8.98,12.53,11.69,19.99,2.71,7.45,4.07,15.24,4.07,23.37,0,13.33-3.28,25.58-9.82,36.76-6.55,11.18-15.41,20.04-26.59,26.59-11.18,6.55-23.43,9.82-36.76,9.82h-47.09V0ZM569.27,197.32c5.87-3.5,10.55-8.18,14.06-14.06,3.5-5.87,5.25-12.31,5.25-19.31s-1.75-13.49-5.25-19.48c-3.5-5.98-8.13-10.72-13.89-14.23-5.76-3.5-12.14-5.25-19.14-5.25v-34.55c5.19,0,9.88-1.24,14.06-3.73,4.18-2.48,7.51-5.81,9.99-9.99,2.48-4.18,3.73-8.86,3.73-14.06s-1.24-9.94-3.73-14.23c-2.49-4.29-5.88-7.67-10.16-10.16-4.29-2.48-8.92-3.73-13.89-3.73h-12.87v168.02h12.53c7,0,13.43-1.75,19.31-5.25Z"/><path class="cls-4" d="M678.86,229.5c-12.08-7.11-21.68-16.71-28.79-28.79-7.11-12.08-10.67-25.35-10.67-39.8s3.56-27.72,10.67-39.8c7.11-12.08,16.71-21.73,28.79-28.96,12.08-7.23,25.35-10.84,39.8-10.84s27.44,3.61,39.63,10.84c12.2,7.23,21.85,16.94,28.96,29.13,7.11,12.19,10.67,25.4,10.67,39.63s-3.56,27.73-10.67,39.8c-7.11,12.08-16.77,21.68-28.96,28.79-12.19,7.11-25.4,10.67-39.63,10.67s-27.73-3.56-39.8-10.67ZM741.19,199.7c6.89-3.95,12.31-9.37,16.26-16.26,3.95-6.89,5.93-14.4,5.93-22.53s-1.98-15.64-5.93-22.53c-3.95-6.89-9.43-12.36-16.43-16.43-7-4.06-14.56-6.1-22.69-6.1s-15.24,2.03-22.02,6.1c-6.78,4.07-12.2,9.54-16.26,16.43-4.07,6.89-6.1,14.4-6.1,22.53s1.97,15.92,5.93,22.7c3.95,6.77,9.32,12.14,16.09,16.09,6.78,3.95,14.23,5.93,22.36,5.93s15.97-1.98,22.86-5.93Z"/><path class="cls-4" d="M849.76,83.33v95.87c0,4.74,1.19,9.09,3.56,13.04,2.37,3.95,5.53,7.11,9.48,9.48,3.95,2.37,8.41,3.56,13.38,3.56,7.23,0,13.43-2.54,18.63-7.62,5.19-5.08,7.79-11.23,7.79-18.46v-95.87h34.21v95.87c0,11.07-2.71,21.23-8.13,30.49-5.42,9.26-12.76,16.6-22.02,22.02-9.26,5.42-19.43,8.13-30.49,8.13s-21.23-2.71-30.49-8.13c-9.26-5.42-16.66-12.76-22.19-22.02-5.54-9.26-8.3-19.42-8.3-30.49v-95.87h34.55Z"/><path class="cls-4" d="M1041.83,237.13v-95.87c0-4.74-1.19-9.15-3.56-13.21-2.37-4.06-5.59-7.28-9.65-9.65-4.07-2.37-8.47-3.56-13.21-3.56s-9.15,1.18-13.21,3.56c-4.07,2.37-7.28,5.59-9.65,9.65-2.37,4.06-3.56,8.47-3.56,13.21v95.87h-34.55v-95.87c0-11.06,2.71-21.22,8.13-30.49,5.42-9.26,12.81-16.65,22.19-22.19,9.37-5.53,19.59-8.3,30.66-8.3s21.22,2.77,30.49,8.3c9.26,5.53,16.6,12.93,22.02,22.19,5.42,9.26,8.13,19.43,8.13,30.49v95.87h-34.21Z"/><path class="cls-4" d="M1189.69,119.24c-5.31-2.48-10.9-3.73-16.77-3.73-8.36,0-15.98,2.03-22.86,6.1-6.89,4.06-12.31,9.54-16.26,16.43-3.95,6.89-5.93,14.4-5.93,22.53s1.97,15.64,5.93,22.53c3.95,6.89,9.43,12.42,16.43,16.6,7,4.18,14.57,6.27,22.69,6.27,5.87,0,11.46-1.19,16.77-3.56,5.3-2.37,10-5.7,14.06-9.99l24.72,23.71c-6.78,7.45-15.02,13.33-24.72,17.61-9.71,4.29-19.99,6.44-30.83,6.44-14.45,0-27.78-3.56-39.97-10.67s-21.85-16.77-28.96-28.96c-7.11-12.19-10.67-25.52-10.67-39.97s3.56-27.78,10.67-39.97c7.11-12.19,16.77-21.79,28.96-28.79,12.19-7,25.52-10.5,39.97-10.5,10.61,0,20.72,2.15,30.32,6.44,9.6,4.29,18.01,10.16,25.23,17.61l-24.72,23.71c-4.06-4.06-8.76-7.34-14.06-9.82Z"/><path class="cls-4" d="M1279.97,146.68h45.73c9.71,0,15.36-2.59,16.94-7.79,1.58-5.19-.96-10.27-7.62-15.24-6.66-4.96-15.75-7.45-27.27-7.45-7.91,0-15.19,2.03-21.85,6.1-6.66,4.06-11.97,9.48-15.92,16.26-3.95,6.77-5.93,14.11-5.93,22.02s1.92,15.58,5.76,22.36c3.84,6.77,9.09,12.25,15.75,16.43,6.66,4.18,13.94,6.27,21.85,6.27,6.32-.22,12.25-1.47,17.79-3.73,5.53-2.26,10.33-5.42,14.39-9.49l22.1,29.01c-7,7.23-13.18,8.25-23.11,12.32-9.94,4.07-20.21,6.1-30.83,6.1-14.23,0-27.33-3.56-39.29-10.67-11.97-7.11-21.46-16.71-28.46-28.8-7-12.08-10.5-25.24-10.5-39.46s3.5-27.44,10.5-39.63c7-12.2,16.48-21.85,28.46-28.96,11.96-7.11,25.06-10.67,39.29-10.67,25.52,0,44.49,8.25,56.91,24.73,12.42,16.49,15.02,33.03,7.79,49.63-7.23,16.6-22.81,24.9-46.75,24.9h-45.73v-34.22Z"/><circle class="cls-4" cx="715.23" cy="158.71" r="109.14"/><circle class="cls-7" cx="715.23" cy="158.71" r="89.52"/><circle class="cls-7" cx="715.23" cy="158.71" r="71.65"/><circle class="cls-6" cx="715.23" cy="158.71" r="45.04"/><circle class="cls-4" cx="715.23" cy="158.71" r="11.25"/></svg>