<?xml version="1.0" encoding="UTF-8"?><svg id="Layer_1" xmlns="http://www.w3.org/2000/svg" viewBox="0 0 1217.73 221.15"><defs><style>.cls-1{fill:#0d6bbc;}.cls-1,.cls-2,.cls-3,.cls-4,.cls-5,.cls-6,.cls-7{stroke-width:0px;}.cls-2{fill:#ef7351;}.cls-3{fill:#93d182;}.cls-4{fill:#1b1b1a;}.cls-5{fill:#000;}.cls-6{fill:#e0c925;}.cls-7{fill:#fff;}</style></defs><path class="cls-3" d="M1217.73,30.1s-47.5,1.61-51.28,39.11c39.01,9.79,51.28-39.11,51.28-39.11Z"/><path class="cls-2" d="M1194.48,11.53s-43.72,18.64-33.71,54.98c39.91-4.95,33.71-54.98,33.71-54.98Z"/><path class="cls-6" d="M1167.88,2.14s-36.79,30.09-17.04,62.2c36.95-15.88,17.04-62.2,17.04-62.2Z"/><path class="cls-1" d="M1136.96,0s-25.46,40.13,3.38,64.4c30.08-26.7-3.38-64.4-3.38-64.4Z"/><path class="cls-7" d="M100.21,151.41c0,18.98,3.06,30.82,3.06,34.9,0,3.27-2.45,4.9-4.49,5.31-5.31.82-21.43,2.04-30,2.04s-22.45-1.22-25.92-2.04c-2.04-.41-3.88-2.04-3.88-4.9,0-3.27,3.06-21.23,3.06-34.49v-62.86c-.61-1.43-1.43-2.04-2.45-2.04-3.47,0-17.14,15.92-21.43,28.37-1.22,3.47-2.86,4.69-5.51,4.69-2.24,0-5.92-4.29-7.76-8.37-1.84-4.08-4.9-15.31-4.9-29.59,0-18.37,12.65-26.33,19.19-27.55,5.51-1.02,26.12-3.27,51.84-3.27s48.58,1.43,54.29,3.27c7.96,2.65,17.55,6.94,17.55,26.33,0,14.08-3.88,25.31-5.31,28.98-1.22,3.27-4.49,8.98-7.55,8.98-3.27,0-5.1-1.84-6.12-4.29-4.69-11.84-13.88-27.55-21.23-27.55-1.02,0-1.84.61-2.45,2.04v62.05Z"/><path class="cls-7" d="M151.24,82.43c0-10.61-3.67-16.94-8.78-23.27,0-10,13.47-16.74,31.64-16.74,12.65,0,28.57,5.72,35.92,11.63-3.67,6.53-5.1,17.35-5.1,30.82,6.33-5.71,19.8-12.04,33.68-12.04,15.51,0,34.49,12.45,34.49,30v54.7c0,16.53,3.06,22.65,3.06,30.82,0,1.63-1.22,2.65-2.86,3.06-4.9,1.43-15.51,2.25-27.14,2.25s-21.43-1.02-25.1-2.04c-1.22-.41-2.65-1.22-2.65-2.45,0-3.47,1.23-10.82,1.23-23.88v-46.74c0-8.78-3.47-15.31-8.98-15.31-2.45,0-4.08.61-5.71,1.22v67.96c0,7.55,1.22,13.27,1.22,15.72,0,1.84-1.02,2.65-2.45,3.06-6.12,1.84-15.31,2.45-26.33,2.45s-21.84-1.22-25.1-2.25c-1.43-.41-3.47-1.22-3.47-3.67,0-3.47,2.45-9.39,2.45-14.29v-91.03Z"/><path class="cls-7" d="M399.63,132.43c0,6.33-12.65,10.21-28.37,10.21-12.25,0-26.74-1.43-33.27-2.65.82,22.45,6.94,37.55,13.47,37.55,4.49,0,6.12-4.49,6.12-10,0-3.47-.61-6.53-1.43-9.59,3.06-2.65,7.96-3.67,12.04-3.67,11.43,0,22.65,8.98,26.33,19.59-8.16,13.67-24.7,21.84-50.82,21.84-35.31,0-60.01-19.59-60.01-58.58s24.9-63.88,62.66-63.88c31.84,0,53.27,14.49,53.27,59.19ZM337.38,127.74c6.94,0,12.65-1.02,16.74-2.65,0-20.61-3.67-32.66-8.57-32.66-5.31,0-8.16,15.31-8.16,35.31Z"/><path class="cls-7" d="M489.39,191.62h-72.45c-2.04,0-3.06-1.84-3.06-4.29,0-3.27,1.84-21.43,1.84-34.7v-59.8c0-13.06-1.23-26.12-3.88-32.04,0-3.88,4.29-9.18,12.86-9.18h66.13c20.61,0,42.66,8.98,42.66,29.59,0,25.51-19.8,35.51-33.27,38.37,17.55,3.67,36.94,11.63,36.94,35.72s-24.49,36.33-47.76,36.33ZM473.88,113.86c7.55,0,12.25-6.53,12.25-19.8,0-10.21-1.63-20-12.25-20v39.8ZM473.88,171.21c8.57,0,13.47-7.76,13.47-22.45s-4.29-21.43-13.47-21.63v44.08Z"/><path class="cls-5" d="M606.54,195.7c-32.66,0-63.68-20.41-63.68-60.62s35.92-61.84,66.13-61.84c38.98,0,63.68,20.41,63.68,58.37,0,41.84-33.68,64.09-66.13,64.09ZM618.99,142.23c0-36.13-7.14-45.51-13.88-45.51-4.69,0-8.57,13.27-8.57,31.02,0,32.04,7.55,44.9,13.88,44.9,4.9,0,8.57-15.72,8.57-30.41Z"/><path class="cls-7" d="M723.08,195.7c-19.39,0-39.6-11.43-39.6-33.27v-53.07c0-6.33-2.65-12.45-5.31-13.88-.82-.61-1.84-2.45-1.84-4.69,0-10,12.86-17.35,26.74-17.35,15.92,0,27.35,4.69,34.08,15.51v63.27c0,8.98,3.47,14.29,8.98,14.29,2.25,0,4.08-1.02,5.51-2.45v-60.21c0-8.16-3.27-11.43-5.92-12.65-.82-.82-1.84-2.25-1.84-4.08,0-7.35,9.59-13.88,20.61-13.88,18.37,0,40.82,4.69,40.82,16.33v71.84c0,6.74,2.45,11.63,4.49,13.88.41.82.61,1.84.61,2.86,0,10.21-14.49,17.55-29.59,17.55-10.41,0-18.98-5.72-23.47-12.65-7.76,7.35-17.55,12.65-34.29,12.65Z"/><path class="cls-7" d="M909.84,73.24c21.84,0,37.55,16.12,37.55,34.7v52.86c0,16.53,2.04,21.63,2.04,25.1,0,2.65-1.02,4.69-2.65,5.31-5.71,2.04-15.72,2.45-26.74,2.45s-20.61-1.22-24.29-2.25c-1.43-.41-2.86-1.43-2.86-3.88,0-3.47.82-11.84.82-15.31v-49.6c0-8.78-3.27-15.92-9.8-15.92-2.04,0-3.67.61-5.31,1.84v50.82c0,12.45,1.84,23.06,1.84,27.14,0,2.25-2.65,4.49-3.88,4.9-5.51,1.84-15.51,2.25-25.51,2.25-7.14,0-17.55-.41-23.47-2.04-2.65-.82-4.29-2.04-4.29-4.69,0-3.27,1.63-8.16,1.63-17.14v-58.98c0-8.57-3.47-13.88-6.74-16.94,0-7.55,15.51-16.53,28.17-16.53s22.04,4.9,26.74,13.67c6.53-10.61,20.41-17.76,36.74-17.76Z"/><path class="cls-7" d="M1041.28,147.74c12.25,0,26.12,6.74,26.12,19.19,0,15.1-14.7,28.78-46.74,28.78-35.51,0-62.66-22.45-62.66-59.39,0-34.7,23.47-63.07,61.43-63.07,34.08,0,49.8,16.94,49.8,31.43,0,15.72-11.63,24.29-23.27,24.29-6.33,0-13.06-1.63-17.55-3.67,1.02-4.69,1.63-10.82,1.63-17.35,0-6.94-3.67-11.43-7.76-11.43-5.71,0-10.61,12.86-10.61,32.66,0,26.74,5.31,43.47,11.63,43.47,4.29,0,6.74-5.51,6.74-11.84,0-3.67-.2-7.76-.82-10.21,3.27-2.04,8.16-2.86,12.04-2.86Z"/><path class="cls-7" d="M1188.84,132.43c0,6.33-12.65,10.21-28.37,10.21-12.25,0-26.74-1.43-33.27-2.65.82,22.45,6.94,37.55,13.47,37.55,4.49,0,6.12-4.49,6.12-10,0-3.47-.61-6.53-1.43-9.59,3.06-2.65,7.96-3.67,12.04-3.67,11.43,0,22.65,8.98,26.33,19.59-8.16,13.67-24.7,21.84-50.82,21.84-35.31,0-60.01-19.59-60.01-58.58s24.9-63.88,62.66-63.88c31.84,0,53.27,14.49,53.27,59.19ZM1126.59,127.74c6.94,0,12.65-1.02,16.74-2.65,0-20.61-3.67-32.66-8.57-32.66-5.31,0-8.16,15.31-8.16,35.31Z"/><path class="cls-4" d="M580.09,190.77c-9.57-5.64-17.18-13.24-22.81-22.81-5.64-9.57-8.45-20.08-8.45-31.54s2.82-21.96,8.45-31.54c5.63-9.57,13.24-17.22,22.81-22.95,9.57-5.73,20.08-8.59,31.54-8.59s21.74,2.86,31.4,8.59c9.66,5.73,17.31,13.42,22.95,23.08,5.64,9.66,8.45,20.13,8.45,31.4s-2.82,21.97-8.45,31.54c-5.63,9.57-13.28,17.18-22.95,22.81-9.66,5.64-20.13,8.45-31.4,8.45s-21.97-2.82-31.54-8.45ZM629.48,167.15c5.46-3.13,9.75-7.42,12.88-12.88,3.13-5.46,4.7-11.41,4.7-17.85s-1.57-12.39-4.7-17.85c-3.13-5.46-7.47-9.8-13.02-13.02-5.55-3.22-11.54-4.83-17.98-4.83s-12.08,1.61-17.44,4.83c-5.37,3.22-9.66,7.56-12.88,13.02-3.22,5.46-4.83,11.41-4.83,17.85s1.56,12.61,4.7,17.98c3.13,5.37,7.38,9.62,12.75,12.75,5.37,3.13,11.27,4.7,17.71,4.7s12.66-1.57,18.12-4.7Z"/><circle class="cls-7" cx="608.91" cy="134.68" r="86.47"/><circle class="cls-7" cx="608.91" cy="134.68" r="70.93"/><circle class="cls-7" cx="608.91" cy="134.68" r="56.76"/><circle class="cls-2" cx="608.91" cy="134.68" r="35.69"/><circle class="cls-7" cx="608.91" cy="134.68" r="8.91"/></svg>